<svg width="24" height="8" viewBox="0 0 24 8" fill="none" xmlns="http://www.w3.org/2000/svg">
<path id="Vector" d="M21.1984 2.96526C21.1984 2.96526 21.5661 4.71095 21.6484 5.07698H20.0323C20.1919 4.65933 20.8065 3.03565 20.8065 3.03565C20.7968 3.04973 20.9661 2.60861 21.0629 2.33644L21.1984 2.96526ZM5.83065 7.65328L8.88871 0.370189H6.83226L4.93064 5.34447L4.72258 4.33553L4.04516 0.984935C3.93387 0.520356 3.59032 0.388959 3.16452 0.370189H0.0338711L0 0.515663C0.764516 0.703372 1.44677 0.975549 2.04194 1.31812L3.77419 7.65328H5.83065ZM10.3984 7.66267L11.6177 0.370189H9.67258L8.45807 7.66267H10.3984ZM17.1677 5.27877C17.1774 4.44816 16.6548 3.81464 15.5371 3.29375C14.8548 2.96057 14.4387 2.73532 14.4387 2.39275C14.4484 2.08303 14.7919 1.76392 15.5565 1.76392C16.1903 1.74985 16.6548 1.89532 17.0032 2.04079L17.1774 2.12057L17.4435 0.543819C17.0613 0.398345 16.4516 0.2341 15.7016 0.2341C13.7806 0.2341 12.4306 1.22896 12.421 2.64615C12.4065 3.69263 13.3887 4.27453 14.1242 4.62648C14.8742 4.98313 15.1306 5.21776 15.1306 5.53217C15.121 6.02022 14.521 6.24547 13.9645 6.24547C13.1903 6.24547 12.7742 6.12815 12.1403 5.85597L11.8839 5.73865L11.6129 7.37641C12.0677 7.5782 12.9097 7.75652 13.7806 7.76591C15.8226 7.7706 17.1532 6.78982 17.1677 5.27877ZM24 7.66267L22.4323 0.370189H20.9274C20.4629 0.370189 20.1097 0.501584 19.9113 0.975548L17.0226 7.66267H19.0645C19.0645 7.66267 19.3984 6.76166 19.471 6.56926H21.9677C22.0258 6.82736 22.2 7.66267 22.2 7.66267H24Z" fill="white"/>
</svg>
