<svg width="32" height="24" viewBox="0 0 32 24" fill="none" xmlns="http://www.w3.org/2000/svg">
<rect width="32" height="24" rx="4" fill="#1534CC"/>
<path d="M25.1984 10.9653C25.1984 10.9653 25.5661 12.7109 25.6484 13.077H24.0323C24.1919 12.6593 24.8065 11.0357 24.8065 11.0357C24.7968 11.0497 24.9661 10.6086 25.0629 10.3364L25.1984 10.9653ZM9.83065 15.6533L12.8887 8.37019H10.8323L8.93064 13.3445L8.72258 12.3355L8.04516 8.98493C7.93387 8.52036 7.59032 8.38896 7.16452 8.37019H4.03387L4 8.51566C4.76452 8.70337 5.44677 8.97555 6.04194 9.31812L7.77419 15.6533H9.83065ZM14.3984 15.6627L15.6177 8.37019H13.6726L12.4581 15.6627H14.3984ZM21.1677 13.2788C21.1774 12.4482 20.6548 11.8146 19.5371 11.2937C18.8548 10.9606 18.4387 10.7353 18.4387 10.3927C18.4484 10.083 18.7919 9.76392 19.5565 9.76392C20.1903 9.74985 20.6548 9.89532 21.0032 10.0408L21.1774 10.1206L21.4435 8.54382C21.0613 8.39834 20.4516 8.2341 19.7016 8.2341C17.7806 8.2341 16.4306 9.22896 16.421 10.6462C16.4065 11.6926 17.3887 12.2745 18.1242 12.6265C18.8742 12.9831 19.1306 13.2178 19.1306 13.5322C19.121 14.0202 18.521 14.2455 17.9645 14.2455C17.1903 14.2455 16.7742 14.1281 16.1403 13.856L15.8839 13.7387L15.6129 15.3764C16.0677 15.5782 16.9097 15.7565 17.7806 15.7659C19.8226 15.7706 21.1532 14.7898 21.1677 13.2788ZM28 15.6627L26.4323 8.37019H24.9274C24.4629 8.37019 24.1097 8.50158 23.9113 8.97555L21.0226 15.6627H23.0645C23.0645 15.6627 23.3984 14.7617 23.471 14.5693H25.9677C26.0258 14.8274 26.2 15.6627 26.2 15.6627H28Z" fill="white"/>
</svg>