<svg width="176" height="28" viewBox="0 0 176 28" fill="none" xmlns="http://www.w3.org/2000/svg">
<g clip-path="url(#clip0_524_350)">
<path d="M13.2605 17.72C13.4605 15.87 12.4705 14.09 10.7805 13.3C12.1305 12.74 13.0005 11.42 12.9905 9.96C12.7605 8.28 11.4805 6.94 9.81055 6.63V21.43C11.6505 21.09 13.0505 19.58 13.2605 17.72Z" fill="#008392"/>
<path d="M0.820312 0.75V27.25H27.3203V0.75H0.820312ZM9.82031 21.43H6.69031V6.62H9.76031L9.81031 6.63V6.62H12.5603C14.4003 6.74 15.8603 8.22 15.9503 10.07C16.0403 11.46 15.2103 12.75 13.9003 13.25C15.4903 14 16.4503 15.65 16.3203 17.4C16.2003 19.4 14.7403 21.07 12.7603 21.44H9.82031V21.43ZM21.5103 17.39C21.3903 19.39 19.9303 21.06 17.9503 21.43H14.3403C14.3403 21.43 17.8903 21.05 18.4303 17.71C18.6303 15.86 17.6403 14.08 15.9503 13.29C17.3003 12.73 18.1703 11.41 18.1603 9.95C17.9303 8.25 16.6203 6.9 14.9303 6.61H17.7303C19.5703 6.73 21.0303 8.21 21.1203 10.06C21.2103 11.45 20.3803 12.74 19.0703 13.24C20.6703 13.99 21.6303 15.64 21.5103 17.39Z" fill="#008392"/>
<path d="M34.8105 7.99203C35.9705 7.80203 37.1405 7.70201 38.3105 7.72201C39.6305 7.59201 40.9505 7.89203 42.0805 8.56203C42.9505 9.07203 43.4705 10.0221 43.4505 11.0221C43.4105 12.3521 42.5305 13.502 41.2605 13.872V13.912C42.8105 14.232 43.9205 15.592 43.9205 17.182C43.9405 18.232 43.4705 19.2421 42.6505 19.9021C41.7105 20.7221 40.1705 21.132 37.7605 21.132C36.7705 21.132 35.7905 21.082 34.8105 20.952V7.99203ZM37.1905 13.192H38.4205C40.0805 13.192 41.0205 12.412 41.0205 11.292C41.0205 10.062 40.0805 9.49203 38.5605 9.49203C38.1005 9.48203 37.6405 9.51206 37.1905 9.59206V13.192ZM37.1905 19.252C37.6105 19.302 38.0405 19.312 38.4605 19.312C40.0005 19.312 41.3705 18.722 41.3705 17.102C41.3705 15.572 40.0405 14.952 38.3805 14.952H37.1905V19.252Z" fill="#008392"/>
<path d="M50.4407 20.992L50.2807 19.932H50.2207C49.5307 20.762 48.4907 21.232 47.4007 21.202C45.8407 21.292 44.5007 20.102 44.4107 18.542C44.4107 18.482 44.4007 18.422 44.4107 18.362C44.4107 15.952 46.5407 14.742 50.0607 14.762V14.612C50.0607 13.982 49.8107 12.952 48.1207 12.952C47.2207 12.952 46.3307 13.192 45.5607 13.652L45.0907 12.082C46.1407 11.502 47.3307 11.212 48.5307 11.242C51.5807 11.242 52.4607 13.182 52.4607 15.252V18.692C52.4507 19.462 52.4907 20.222 52.6007 20.982H50.4407V20.992ZM50.1307 16.342C48.4307 16.302 46.8107 16.672 46.8107 18.122C46.7507 18.812 47.2607 19.432 47.9607 19.492C48.0307 19.502 48.1107 19.502 48.1807 19.492C49.0207 19.512 49.7807 18.982 50.0607 18.182C50.1107 18.012 50.1407 17.832 50.1407 17.652L50.1307 16.342Z" fill="#008392"/>
<path d="M54.1503 14.302C54.1503 13.202 54.1303 12.2921 54.0703 11.4621H56.1803L56.3003 12.8921H56.3603C57.0003 11.8421 58.1603 11.212 59.3903 11.252C61.0503 11.252 62.7703 12.3321 62.7703 15.3421V20.992H60.3603V15.612C60.3603 14.242 59.8503 13.2021 58.5403 13.2021C57.6803 13.2221 56.9203 13.792 56.6603 14.612C56.5803 14.862 56.5503 15.1321 56.5603 15.3921V20.982H54.1503V14.302Z" fill="#008392"/>
<path d="M71.6807 20.702C70.8207 21.042 69.9007 21.212 68.9807 21.192C66.4607 21.382 64.2607 19.492 64.0707 16.972C64.0507 16.762 64.0507 16.552 64.0707 16.342C63.9707 13.622 66.1007 11.342 68.8207 11.242C69.0007 11.232 69.1907 11.242 69.3707 11.252C70.1707 11.242 70.9607 11.402 71.7007 11.702L71.2707 13.502C70.7007 13.242 70.0807 13.122 69.4507 13.132C67.7507 13.232 66.4507 14.682 66.5507 16.392C66.6407 17.962 67.8907 19.202 69.4507 19.292C70.1007 19.302 70.7507 19.172 71.3507 18.922L71.6807 20.702Z" fill="#008392"/>
<path d="M81.3604 16.142C81.5504 18.742 79.6004 21.002 77.0104 21.202C76.8304 21.212 76.6504 21.222 76.4804 21.212C73.9404 21.312 71.8004 19.332 71.7004 16.792C71.6904 16.632 71.7004 16.472 71.7104 16.312C71.5204 13.722 73.4604 11.472 76.0404 11.272C76.2404 11.262 76.4404 11.252 76.6304 11.262C79.1504 11.162 81.2704 13.132 81.3704 15.652C81.3704 15.812 81.3704 15.982 81.3604 16.142ZM74.1804 16.242C74.1804 18.082 75.0804 19.472 76.5504 19.472C77.9204 19.472 78.8804 18.122 78.8804 16.202C78.8804 14.712 78.2104 13.012 76.5704 13.012C74.8704 13.012 74.1804 14.662 74.1804 16.242Z" fill="#008392"/>
<path d="M87.4004 7.80202C88.5604 7.61202 89.7304 7.522 90.9004 7.532C92.2204 7.402 93.5404 7.70203 94.6704 8.37203C95.5404 8.88203 96.0604 9.83205 96.0404 10.8321C96.0004 12.1621 95.1204 13.312 93.8504 13.682V13.722C95.4004 14.042 96.5104 15.402 96.5104 16.992C96.5304 18.042 96.0604 19.0521 95.2404 19.7121C94.3004 20.5321 92.7604 20.942 90.3504 20.942C89.3604 20.942 88.3804 20.882 87.4004 20.762V7.80202ZM89.7804 13.002H91.0104C92.6704 13.002 93.6104 12.222 93.6104 11.102C93.6104 9.87201 92.6704 9.30202 91.1504 9.30202C90.6904 9.29202 90.2304 9.32206 89.7804 9.40206V13.002ZM89.7804 19.072C90.2004 19.122 90.6304 19.132 91.0504 19.132C92.6004 19.132 93.9604 18.542 93.9604 16.922C93.9604 15.392 92.6304 14.7721 90.9704 14.7721H89.7804V19.072Z" fill="#008392"/>
<path d="M107.05 15.962C107.24 18.562 105.3 20.822 102.7 21.022C102.52 21.032 102.34 21.042 102.16 21.032C99.6201 21.132 97.4801 19.152 97.3801 16.612C97.3701 16.452 97.3801 16.292 97.3901 16.132C97.2001 13.542 99.1401 11.292 101.72 11.092C101.92 11.082 102.12 11.072 102.31 11.082C104.83 10.982 106.95 12.952 107.05 15.472C107.06 15.622 107.06 15.792 107.05 15.962ZM99.8701 16.062C99.8701 17.902 100.77 19.292 102.24 19.292C103.61 19.292 104.57 17.942 104.57 16.022C104.57 14.532 103.9 12.832 102.26 12.832C100.55 12.832 99.8701 14.472 99.8701 16.062Z" fill="#008392"/>
<path d="M108.36 6.922H110.79V20.812H108.37L108.36 6.922Z" fill="#008392"/>
<path d="M115.141 11.282H112.721V20.802H115.141V11.282Z" fill="#008392"/>
<path d="M118.58 11.282L120.12 16.112C120.39 16.952 120.59 17.712 120.77 18.502H120.83C121.01 17.722 121.22 16.972 121.48 16.112L122.99 11.282H125.53L121.89 20.802H119.52L115.98 11.282H118.58Z" fill="#008392"/>
<path d="M131.571 20.812L131.411 19.752H131.351C130.661 20.582 129.621 21.052 128.531 21.022C126.971 21.112 125.631 19.922 125.541 18.362C125.541 18.302 125.531 18.242 125.541 18.182C125.541 15.772 127.671 14.562 131.191 14.582V14.422C131.191 13.792 130.941 12.762 129.251 12.762C128.351 12.762 127.461 13.002 126.691 13.462L126.221 11.892C127.271 11.312 128.461 11.022 129.661 11.052C132.711 11.052 133.591 12.992 133.591 15.062V18.502C133.581 19.272 133.621 20.032 133.731 20.792L131.571 20.812ZM131.261 16.152C129.561 16.112 127.931 16.482 127.931 17.932C127.871 18.622 128.381 19.242 129.081 19.302C129.151 19.312 129.231 19.312 129.301 19.302C130.141 19.322 130.901 18.792 131.181 17.992C131.231 17.822 131.261 17.642 131.261 17.462V16.152Z" fill="#008392"/>
<path d="M135.48 14.352C135.48 13.062 135.46 12.142 135.4 11.282H137.49L137.57 13.102H137.65C137.99 11.942 139.04 11.122 140.25 11.072C140.44 11.072 140.63 11.092 140.82 11.132V13.402C140.59 13.352 140.36 13.322 140.12 13.322C139.05 13.292 138.12 14.072 137.97 15.142C137.92 15.382 137.9 15.632 137.89 15.882V20.812H135.48V14.352Z" fill="#008392"/>
<path d="M144.2 11.282H141.78V20.802H144.2V11.282Z" fill="#008392"/>
<path d="M151.481 20.812L151.321 19.752H151.261C150.571 20.582 149.531 21.052 148.441 21.022C146.881 21.112 145.541 19.922 145.451 18.362C145.451 18.302 145.441 18.242 145.451 18.182C145.451 15.772 147.581 14.562 151.101 14.582V14.422C151.101 13.792 150.851 12.762 149.161 12.762C148.261 12.762 147.371 13.002 146.601 13.462L146.131 11.892C147.181 11.312 148.371 11.022 149.571 11.052C152.621 11.052 153.501 12.992 153.501 15.062V18.502C153.491 19.272 153.531 20.032 153.641 20.792L151.481 20.812ZM151.161 16.152C149.461 16.112 147.831 16.482 147.831 17.932C147.771 18.622 148.281 19.242 148.981 19.302C149.051 19.312 149.131 19.312 149.201 19.302C150.041 19.322 150.801 18.792 151.081 17.992C151.131 17.822 151.161 17.642 151.161 17.462V16.152Z" fill="#008392"/>
<path d="M155.391 14.122C155.391 13.022 155.371 12.102 155.311 11.282H157.421L157.541 12.7121H157.601C158.241 11.6621 159.401 11.032 160.631 11.072C162.291 11.072 164.011 12.152 164.011 15.162V20.812H161.601V15.432C161.601 14.062 161.091 13.0221 159.781 13.0221C158.921 13.0421 158.161 13.612 157.901 14.432C157.821 14.682 157.791 14.9521 157.801 15.2121V20.802H155.371L155.391 14.122Z" fill="#008392"/>
<path d="M174.96 15.962C175.15 18.562 173.2 20.822 170.6 21.022C170.42 21.032 170.24 21.042 170.07 21.032C167.53 21.132 165.39 19.152 165.29 16.612C165.28 16.452 165.29 16.292 165.3 16.132C165.11 13.542 167.05 11.292 169.63 11.092C169.83 11.082 170.03 11.072 170.22 11.082C172.74 10.982 174.86 12.952 174.96 15.472C174.98 15.632 174.98 15.792 174.96 15.962ZM167.79 16.062C167.79 17.902 168.69 19.292 170.16 19.292C171.53 19.292 172.49 17.942 172.49 16.022C172.49 14.532 171.83 12.832 170.18 12.832C168.47 12.832 167.79 14.472 167.79 16.062Z" fill="#008392"/>
<path d="M115.23 7.31201H112.63V9.91199H115.23V7.31201Z" fill="#008392"/>
<path d="M144.29 7.31201H141.69V9.91199H144.29V7.31201Z" fill="#008392"/>
</g>
<defs>
<clipPath id="clip0_524_350">
<rect width="175" height="27" fill="white" transform="translate(0.5 0.5)"/>
</clipPath>
</defs>
</svg>