<svg xmlns="http://www.w3.org/2000/svg" width="20" height="20" viewBox="0 0 20 20" fill="none">
    <path d="M15 17.5C15 16.1739 14.4732 14.9021 13.5355 13.9645C12.5979 13.0268 11.3261 12.5 10 12.5C8.67392 12.5 7.40215 13.0268 6.46447 13.9645C5.52678 14.9021 5 16.1739 5 17.5" stroke="#6B314F" stroke-width="2" stroke-linecap="round" stroke-linejoin="round"/>
    <path d="M10.0003 12.5C11.8413 12.5 13.3337 11.0076 13.3337 9.16668C13.3337 7.32573 11.8413 5.83334 10.0003 5.83334C8.15938 5.83334 6.66699 7.32573 6.66699 9.16668C6.66699 11.0076 8.15938 12.5 10.0003 12.5Z" stroke="#6B314F" stroke-width="2" stroke-linecap="round" stroke-linejoin="round"/>
    <path d="M15.8333 2.5H4.16667C3.24619 2.5 2.5 3.24619 2.5 4.16667V15.8333C2.5 16.7538 3.24619 17.5 4.16667 17.5H15.8333C16.7538 17.5 17.5 16.7538 17.5 15.8333V4.16667C17.5 3.24619 16.7538 2.5 15.8333 2.5Z" stroke="#6B314F" stroke-width="2" stroke-linecap="round" stroke-linejoin="round"/>
</svg>