<svg width="32" height="32" viewBox="0 0 32 32" fill="none" xmlns="http://www.w3.org/2000/svg">
<g id="Logo-header">
<g id="logo-BB">
<path id="Path bg" d="M16.0089 31.99C14.1009 31.99 12.1929 32.015 10.2859 31.985C8.19138 31.9466 6.15873 31.2686 4.46066 30.0419C2.76259 28.8151 1.48031 27.0984 0.785855 25.122C0.427021 24.1009 0.226705 23.0308 0.191861 21.9491C0.0988611 19.6491 -0.0331413 17.355 0.0018587 15.049C0.0298587 13.185 0.0478543 11.312 0.259854 9.46504C0.414121 7.71159 1.02441 6.02899 2.03012 4.58437C3.03583 3.13974 4.402 1.98334 5.99289 1.23003C7.25779 0.595619 8.64547 0.243852 10.0598 0.199051C12.3168 0.0990507 14.5739 -0.043973 16.8349 0.00602704C18.7509 0.048027 20.6719 0.0720319 22.5789 0.261032C24.9261 0.51041 27.1165 1.55844 28.7834 3.22972C30.4503 4.90101 31.4926 7.09413 31.7359 9.44203C31.8519 10.642 31.8769 11.848 31.9299 13.052C32.0159 15.027 32.0209 17.004 31.9299 18.978C31.9231 20.4463 31.8289 21.9129 31.6479 23.37C31.2476 25.7851 30.0004 27.9787 28.1296 29.5575C26.2588 31.1364 23.8868 31.9973 21.4389 31.986L16.0089 31.99Z" fill="#008392"/>
<g id="BB">
<path id="Trazado 38" d="M18.6978 19.798C18.6912 18.7908 18.3996 17.806 17.8566 16.9576C17.3137 16.1092 16.5416 15.4319 15.6298 15.004C16.5248 14.6305 17.263 13.9587 17.719 13.1028C18.175 12.2469 18.3207 11.2595 18.1315 10.3083C17.9422 9.35716 17.4296 8.50077 16.6807 7.8846C15.9317 7.26843 14.9926 6.93044 14.0228 6.928H10.5458V6.94802C10.4872 6.92863 10.4252 6.9218 10.3638 6.928H6.92578V25.103H9.7688C10.0378 25.0921 10.3054 25.0587 10.5688 25.003L10.5448 6.946C11.6179 6.99274 12.6324 7.44886 13.3795 8.22057C14.1267 8.99228 14.5497 10.0209 14.5618 11.095C14.5669 11.7588 14.4125 12.4141 14.1116 13.0057C13.8108 13.5974 13.3721 14.1081 12.8328 14.495C12.5808 14.7012 12.298 14.8666 11.9948 14.985C12.1818 15.078 12.3758 15.198 12.5668 15.311C13.4832 15.8813 14.2027 16.7187 14.6284 17.7106C15.0541 18.7024 15.1655 19.801 14.9475 20.8581C14.7295 21.9152 14.1927 22.88 13.4094 23.6226C12.6261 24.3652 11.634 24.8498 10.5668 25.011L10.5418 25.111H13.3978C14.804 25.1055 16.1508 24.5435 17.1439 23.548C18.137 22.5524 18.6957 21.2042 18.6978 19.798Z" fill="white"/>
<path id="Trazado 39" d="M22.0026 15.004C22.7693 14.6817 23.423 14.1389 23.8809 13.4446C24.3387 12.7503 24.5802 11.9357 24.5746 11.1041C24.5799 10.5541 24.4754 10.0085 24.2672 9.49947C24.0589 8.99041 23.751 8.52805 23.3617 8.13954C22.9724 7.75104 22.5093 7.4442 21.9998 7.23702C21.4903 7.02984 20.9446 6.92648 20.3946 6.93303H16.7496C17.8595 6.92958 18.9254 7.367 19.713 8.14913C20.5006 8.93126 20.9453 9.99411 20.9496 11.1041C20.9234 11.9344 20.6663 12.741 20.207 13.4333C19.7477 14.1256 19.1045 14.6761 18.3496 15.023C18.5672 15.0862 18.7726 15.1852 18.9576 15.316C19.9329 15.9268 20.683 16.8384 21.0945 17.9132C21.5059 18.9879 21.5564 20.1674 21.2382 21.2733C20.9201 22.3793 20.2505 23.3516 19.3309 24.0434C18.4112 24.7353 17.2914 25.109 16.1406 25.1081H19.7686C20.9764 25.1112 22.149 24.7013 23.0917 23.9463C24.0345 23.1914 24.6908 22.1367 24.9516 20.9574C25.2124 19.7781 25.0622 18.5451 24.5258 17.4629C23.9894 16.3808 23.0991 15.5145 22.0026 15.008V15.004Z" fill="white"/>
</g>
</g>
</g>
</svg>
